<?xml version="1.0" standalone="no"?>
<!DOCTYPE svg PUBLIC "-//W3C//DTD SVG 20010904//EN"
 "http://www.w3.org/TR/2001/REC-SVG-20010904/DTD/svg10.dtd">
<svg version="1.0" xmlns="http://www.w3.org/2000/svg"
 width="512.000000pt" height="512.000000pt" viewBox="0 0 512.000000 512.000000"
 preserveAspectRatio="xMidYMid meet">
<metadata>
Created by potrace 1.16, written by Peter Selinger 2001-2019
</metadata>
<g transform="translate(0.000000,512.000000) scale(0.100000,-0.100000)"
fill="#000000" stroke="none">
<path d="M1237 4870 c-138 -17 -314 -88 -422 -169 -118 -89 -225 -223 -285
-355 -39 -85 -40 -137 -4 -165 59 -47 99 -21 159 102 131 269 377 426 666 427
300 0 562 -175 682 -457 35 -83 54 -176 41 -207 -5 -13 -37 -47 -71 -75 -150
-123 -278 -357 -299 -548 -10 -89 -18 -101 -78 -128 -184 -81 -425 -69 -617
32 -228 118 -359 320 -394 606 -8 61 -33 87 -83 87 -70 0 -88 -42 -72 -162 22
-165 92 -326 197 -454 24 -31 43 -57 41 -58 -2 -1 -28 -8 -58 -15 -30 -7 -105
-37 -166 -67 -223 -109 -385 -307 -450 -549 -18 -66 -19 -117 -19 -825 0 -754
0 -755 22 -795 29 -54 87 -110 142 -137 46 -23 49 -23 559 -26 l512 -3 0 -219
c0 -196 2 -225 20 -274 26 -69 85 -130 158 -164 l57 -27 1085 0 1085 0 57 27
c73 34 132 95 158 164 18 49 20 78 20 274 l0 219 513 3 c509 3 512 3 558 26
55 27 113 83 142 137 22 40 22 45 25 765 2 482 -1 746 -8 787 -27 158 -103
311 -215 431 -109 117 -231 196 -367 238 l-56 17 59 74 c155 195 217 403 197
659 -16 194 -105 390 -243 531 -70 73 -107 82 -150 38 -40 -39 -33 -75 26
-142 153 -174 216 -342 207 -552 -9 -192 -74 -336 -213 -477 -206 -208 -490
-276 -760 -183 -91 32 -94 35 -110 135 -36 221 -124 386 -288 540 -46 44 -86
87 -90 96 -10 29 32 178 74 258 92 177 241 303 439 370 47 16 99 23 185 27
104 5 132 2 205 -17 132 -35 148 -36 176 -9 32 30 33 87 2 117 -14 12 -65 32
-123 47 -80 22 -124 27 -220 28 -254 2 -468 -85 -645 -263 -121 -121 -209
-277 -240 -424 -6 -31 -16 -56 -21 -56 -5 0 -48 12 -96 27 -78 23 -105 26
-243 27 -143 1 -163 -1 -253 -28 -54 -16 -100 -27 -102 -24 -3 2 -16 44 -30
92 -93 321 -355 566 -675 631 -90 19 -222 25 -303 15z m1553 -870 c441 -125
664 -616 465 -1025 -125 -258 -378 -418 -660 -418 -408 -1 -735 326 -735 733
0 230 105 445 285 583 98 75 183 112 350 151 44 11 223 -4 295 -24z m-1828
-835 c141 -65 214 -80 388 -80 130 0 168 4 238 23 60 16 88 20 101 12 12 -6
28 -38 41 -82 26 -86 85 -207 135 -276 53 -75 44 -105 -40 -132 -67 -21 -174
-79 -185 -99 -17 -33 -11 -71 15 -96 32 -33 64 -32 143 6 87 41 200 69 278 69
50 0 79 -7 144 -35 251 -111 535 -108 765 7 52 27 66 30 118 24 147 -15 293
-89 414 -211 67 -68 89 -99 127 -176 76 -159 76 -156 76 -927 l0 -679 -23 -33
c-12 -18 -35 -43 -50 -54 -28 -21 -29 -21 -1087 -21 -1058 0 -1059 0 -1087 21
-15 11 -38 36 -51 55 l-23 33 4 711 c3 763 2 737 56 860 12 28 40 77 62 111
26 40 39 72 39 94 0 46 -33 80 -78 80 -48 0 -90 -49 -152 -175 -85 -173 -83
-161 -87 -662 l-4 -443 -482 0 c-538 0 -527 -1 -575 70 l-23 34 3 721 3 720
26 72 c96 260 303 439 561 482 99 16 131 13 210 -24z m3473 8 c225 -55 410
-231 496 -473 l24 -65 3 -720 3 -721 -23 -34 c-48 -71 -37 -70 -575 -70 l-482
0 -3 443 c-4 420 -5 446 -26 512 -87 282 -299 501 -570 589 l-52 18 43 51 c99
118 153 221 189 358 l22 86 66 -23 c98 -34 200 -47 330 -41 136 6 216 25 325
76 88 42 110 44 230 14z"/>
</g>
</svg>
