<svg id="Layer_1" data-name="Layer 1" xmlns="http://www.w3.org/2000/svg" viewBox="0 0 511.36 462.98"><defs><style>.cls-1{fill:#fff;}</style></defs><path class="cls-1" d="M123.7,25c-13.8,1.7-31.4,8.8-42.2,16.9A97.1,97.1,0,0,0,53,77.4c-3.9,8.5-4,13.7-.4,16.5,5.9,4.7,9.9,2.1,15.9-10.2C81.6,56.8,106.2,41.1,135.1,41c30,0,56.2,17.5,68.2,45.7,3.5,8.3,5.4,17.6,4.1,20.7-.5,1.3-3.7,4.7-7.1,7.5-15,12.3-27.8,35.7-29.9,54.8-1,8.9-1.8,10.1-7.8,12.8-18.4,8.1-42.5,6.9-61.7-3.2q-34.2-17.7-39.4-60.6c-.8-6.1-3.3-8.7-8.3-8.7-7,0-8.8,4.2-7.2,16.2a91.55,91.55,0,0,0,19.7,45.4c2.4,3.1,4.3,5.7,4.1,5.8s-2.8.8-5.8,1.5-10.5,3.7-16.6,6.7a85.21,85.21,0,0,0-45,54.9C.6,247.1.5,252.2.5,323c0,75.4,0,75.5,2.2,79.5a35.33,35.33,0,0,0,14.2,13.7c4.6,2.3,4.9,2.3,55.9,2.6l51.2.3V441c0,19.6.2,22.5,2,27.4,2.6,6.9,8.5,13,15.8,16.4l5.7,2.7h217l5.7-2.7c7.3-3.4,13.2-9.5,15.8-16.4,1.8-4.9,2-7.8,2-27.4V419.1l51.3-.3c50.9-.3,51.2-.3,55.8-2.6a35.33,35.33,0,0,0,14.2-13.7c2.2-4,2.2-4.5,2.5-76.5.2-48.2-.1-74.6-.8-78.7a84.87,84.87,0,0,0-21.5-43.1q-16.35-17.55-36.7-23.8l-5.6-1.7,5.9-7.4c15.5-19.5,21.7-40.3,19.7-65.9a88,88,0,0,0-24.3-53.1c-7-7.3-10.7-8.2-15-3.8-4,3.9-3.3,7.5,2.6,14.2,15.3,17.4,21.6,34.2,20.7,55.2-.9,19.2-7.4,33.6-21.3,47.7-20.6,20.8-49,27.6-76,18.3-9.1-3.2-9.4-3.5-11-13.5-3.6-22.1-12.4-38.6-28.8-54-4.6-4.4-8.6-8.7-9-9.6-1-2.9,3.2-17.8,7.4-25.8,9.2-17.7,24.1-30.3,43.9-37,4.7-1.6,9.9-2.3,18.5-2.7,10.4-.5,13.2-.2,20.5,1.7,13.2,3.5,14.8,3.6,17.6.9a8.43,8.43,0,0,0,.2-11.7c-1.4-1.2-6.5-3.2-12.3-4.7-8-2.2-12.4-2.7-22-2.8-25.4-.2-46.8,8.5-64.5,26.3-12.1,12.1-20.9,27.7-24,42.4-.6,3.1-1.6,5.6-2.1,5.6s-4.8-1.2-9.6-2.7c-7.8-2.3-10.5-2.6-24.3-2.7-14.3-.1-16.3.1-25.3,2.8-5.4,1.6-10,2.7-10.2,2.4s-1.6-4.4-3-9.2C212.2,57.5,186,33,154,26.5,145,24.6,131.8,24,123.7,25ZM279,112c44.1,12.5,66.4,61.6,46.5,102.5-12.5,25.8-37.8,41.8-66,41.8a73.49,73.49,0,0,1-45-131.6c9.8-7.5,18.3-11.2,35-15.1C253.9,108.5,271.8,110,279,112ZM96.2,195.5c14.1,6.5,21.4,8,38.8,8,13,0,16.8-.4,23.8-2.3,6-1.6,8.8-2,10.1-1.2,1.2.6,2.8,3.8,4.1,8.2,2.6,8.6,8.5,20.7,13.5,27.6,5.3,7.5,4.4,10.5-4,13.2-6.7,2.1-17.4,7.9-18.5,9.9a8,8,0,0,0,1.5,9.6c3.2,3.3,6.4,3.2,14.3-.6,8.7-4.1,20-6.9,27.8-6.9,5,0,7.9.7,14.4,3.5,25.1,11.1,53.5,10.8,76.5-.7,5.2-2.7,6.6-3,11.8-2.4,14.7,1.5,29.3,8.9,41.4,21.1,6.7,6.8,8.9,9.9,12.7,17.6,7.6,15.9,7.6,15.6,7.6,92.7v67.9l-2.3,3.3a26.05,26.05,0,0,1-5,5.4c-2.8,2.1-2.9,2.1-108.7,2.1s-105.9,0-108.7-2.1a27.23,27.23,0,0,1-5.1-5.5l-2.3-3.3.4-71.1c.3-76.3.2-73.7,5.6-86a92.61,92.61,0,0,1,6.2-11.1c2.6-4,3.9-7.2,3.9-9.4a7.67,7.67,0,0,0-7.8-8c-4.8,0-9,4.9-15.2,17.5-8.5,17.3-8.3,16.1-8.7,66.2l-.4,44.3H75.7c-53.8,0-52.7.1-57.5-7l-2.3-3.4.3-72.1.3-72,2.6-7.2c9.6-26,30.3-43.9,56.1-48.2C85.1,191.5,88.3,191.8,96.2,195.5Zm347.3-.8c22.5,5.5,41,23.1,49.6,47.3l2.4,6.5.3,72,.3,72.1-2.3,3.4c-4.8,7.1-3.7,7-57.5,7H388.1l-.3-44.3c-.4-42-.5-44.6-2.6-51.2-8.7-28.2-29.9-50.1-57-58.9l-5.2-1.8,4.3-5.1c9.9-11.8,15.3-22.1,18.9-35.8l2.2-8.6,6.6,2.3c9.8,3.4,20,4.7,33,4.1,13.6-.6,21.6-2.5,32.5-7.6C429.3,191.9,431.5,191.7,443.5,194.7Z" transform="translate(-0.5 -24.52)"/></svg>